<svg width="24" height="26" viewBox="0 0 24 26" fill="none" xmlns="http://www.w3.org/2000/svg">
<path fill-rule="evenodd" clip-rule="evenodd" d="M7.05027 5.05025C8.36302 3.7375 10.1435 3 12 3C13.8565 3 15.637 3.7375 16.9498 5.05025C18.2625 6.36301 19 8.14349 19 10C19 13.3527 19.7171 15.4346 20.3779 16.6461C20.7097 17.2544 21.0328 17.6535 21.2572 17.8904C21.3697 18.0091 21.4581 18.0878 21.5113 18.1322C21.5379 18.1544 21.5558 18.168 21.5635 18.1737C21.5647 18.1746 21.5656 18.1753 21.5663 18.1758C21.9248 18.4221 22.0835 18.8725 21.9571 19.2898C21.8294 19.7115 21.4407 20 21 20H3.00002C2.55935 20 2.17062 19.7115 2.04292 19.2898C1.91658 18.8725 2.07522 18.4221 2.43371 18.1758C2.43441 18.1753 2.43536 18.1746 2.43656 18.1737C2.44426 18.168 2.46212 18.1544 2.48874 18.1322C2.54195 18.0878 2.63034 18.0091 2.74281 17.8904C2.96724 17.6535 3.29033 17.2544 3.62212 16.6461C4.28295 15.4346 5.00002 13.3527 5.00002 10C5.00002 8.14348 5.73751 6.36301 7.05027 5.05025ZM2.44381 18.169C2.44389 18.1689 2.44397 18.1688 2.44405 18.1688C2.44405 18.1688 2.44404 18.1688 2.44404 18.1688L2.44381 18.169ZM5.14934 18H18.8507C18.7746 17.8753 18.6982 17.7434 18.6221 17.6039C17.7829 16.0654 17 13.6473 17 10C17 8.67392 16.4732 7.40215 15.5356 6.46447C14.5979 5.52678 13.3261 5 12 5C10.6739 5 9.40216 5.52678 8.46448 6.46447C7.5268 7.40215 7.00002 8.67392 7.00002 10C7.00002 13.6473 6.21708 16.0654 5.37791 17.6039C5.30181 17.7434 5.22543 17.8753 5.14934 18Z" fill="#637381"/>
<path fill-rule="evenodd" clip-rule="evenodd" d="M9.76823 22.135C10.246 21.8579 10.8579 22.0205 11.135 22.4982C11.2229 22.6497 11.3491 22.7755 11.5009 22.863C11.6527 22.9504 11.8248 22.9964 12 22.9964C12.1752 22.9964 12.3473 22.9504 12.4991 22.863C12.6509 22.7755 12.7771 22.6497 12.865 22.4982C13.1421 22.0205 13.754 21.8579 14.2318 22.135C14.7095 22.4121 14.8721 23.024 14.595 23.5018C14.3313 23.9564 13.9528 24.3337 13.4973 24.596C13.0419 24.8584 12.5256 24.9964 12 24.9964C11.4744 24.9964 10.9581 24.8584 10.5027 24.596C10.0472 24.3337 9.66872 23.9564 9.405 23.5018C9.12788 23.024 9.2905 22.4121 9.76823 22.135Z" fill="#637381"/>
<circle cx="16" cy="4" r="3.5" fill="#DC3545" stroke="white"/>
</svg>
