 <svg
                        width="12"
                        height="4"
                        viewBox="0 0 12 4"
                        fill="none"
                        xmlns="http://www.w3.org/2000/svg"
                        className="cursor-pointer"
                      >
                        <path
                          d="M2.1582 2.84277C1.94857 3.04785 1.69564 3.15039 1.39941 3.15039C1.10319 3.15039 0.85026 3.04557 0.640625 2.83594C0.43099 2.6263 0.326172 2.37337 0.326172 2.07715C0.326172 1.78092 0.43099 1.52572 0.640625 1.31152C0.85026 1.09733 1.10319 0.990234 1.39941 0.990234C1.69564 0.990234 1.94857 1.09733 2.1582 1.31152C2.3724 1.52572 2.47949 1.78092 2.47949 2.07715C2.47949 2.37793 2.3724 2.63314 2.1582 2.84277ZM6.80303 2.84277C6.5934 3.04785 6.34047 3.15039 6.04424 3.15039C5.74802 3.15039 5.49509 3.04557 5.28545 2.83594C5.07582 2.6263 4.971 2.37337 4.971 2.07715C4.971 1.78092 5.07582 1.52572 5.28545 1.31152C5.49509 1.09733 5.74802 0.990234 6.04424 0.990234C6.34047 0.990234 6.5934 1.09733 6.80303 1.31152C7.01722 1.52572 7.12432 1.78092 7.12432 2.07715C7.12432 2.37793 7.01722 2.63314 6.80303 2.84277ZM11.4479 2.84277C11.2382 3.04785 10.9853 3.15039 10.6891 3.15039C10.3928 3.15039 10.1399 3.04557 9.93028 2.83594C9.72065 2.6263 9.61583 2.37337 9.61583 2.07715C9.61583 1.78092 9.72065 1.52572 9.93028 1.31152C10.1399 1.09733 10.3928 0.990234 10.6891 0.990234C10.9853 0.990234 11.2382 1.09733 11.4479 1.31152C11.6621 1.52572 11.7691 1.78092 11.7691 2.07715C11.7691 2.37793 11.6621 2.63314 11.4479 2.84277Z"
                          fill="#637381"
                        />
                      </svg>