<svg width="87" height="46" viewBox="0 0 87 46" fill="none" xmlns="http://www.w3.org/2000/svg">
<path d="M1.5 45L5.12882 23.5102L6.14939 19.3479V19.3479C6.55049 17.192 9.46819 16.7968 10.4359 18.7673L15.3239 28.7212C15.7907 29.6718 16.538 30.4567 17.4647 30.9697V30.9697C18.6644 31.6338 20.0778 31.7946 21.3941 31.4168L24.6537 30.4812C25.3479 30.2819 26.0216 30.0177 26.666 29.6922L27.6705 29.1846C31.0207 27.4919 35.0496 27.8799 38.0226 30.1816V30.1816V30.1816C41.6998 33.2584 47.3154 31.6405 48.7795 27.0825L52.5 15.5V15.5C52.7633 14.5127 54.224 14.7373 54.1822 15.7586L53.4555 33.4991C53.4275 34.1824 53.7942 34.8218 54.3984 35.1434V35.1434C55.2151 35.5781 56.2275 35.3147 56.7266 34.5376L63.0742 24.6563C63.3286 24.2604 63.6477 23.9101 64.0182 23.6201V23.6201C65.7421 22.271 68.2153 22.4731 69.7029 24.0846L70.838 25.3143L72.1221 26.5984C72.3118 26.7881 72.5274 26.95 72.7624 27.0793V27.0793C74.2472 27.8959 76.1097 27.2392 76.7504 25.6731L78.3745 21.703L86 1.5" stroke="#10B860" stroke-width="2" stroke-linecap="round"/>
</svg>
