<svg width="81" height="26" viewBox="0 0 81 26" fill="none" xmlns="http://www.w3.org/2000/svg">
<path d="M0.999978 21.3137L2.74712 12.8171L3.76769 8.65475V8.65475C4.16879 6.49886 7.08649 6.1037 8.05416 8.07422L13.2053 18.5637C13.5009 19.1657 13.9741 19.6627 14.5608 19.9875V19.9875C15.9475 20.7551 17.6829 20.4203 18.6809 19.1925L31.8969 2.9337C31.9655 2.84931 32.0267 2.75918 32.0799 2.66428V2.66428C33.0365 0.956451 35.6409 1.6405 35.6409 3.59959L35.6409 16.9681C35.6409 18.5653 36.3497 20.0815 37.5758 21.1074L39.8286 22.9924C41.8132 24.6531 44.7345 24.526 46.5608 22.6997L46.7909 22.4695C46.8938 22.3666 47.0077 22.2752 47.1304 22.197V22.197C47.9361 21.6833 48.9935 21.81 49.6573 22.4998L50.7459 23.6309C50.9328 23.8251 51.1492 23.9886 51.3871 24.1152V24.1152C52.5596 24.7393 54.0131 24.3611 54.7298 23.2454L60.6925 13.9632C60.9469 13.5673 61.266 13.217 61.6365 12.927V12.927C63.3604 11.5779 65.8336 11.78 67.3212 13.3915L68.4563 14.6212L69.7404 15.9053C69.9301 16.095 70.1457 16.2569 70.3807 16.3862V16.3862C71.8655 17.2028 73.728 16.5461 74.3687 14.98L75.9928 11.0099L79.6041 1.90328" stroke="#10B860" stroke-width="2" stroke-linecap="round"/>
</svg>
