<svg width="80" height="35" viewBox="0 0 80 35" fill="none" xmlns="http://www.w3.org/2000/svg">
<path d="M1.83828 21.2278L2.85886 17.0654V17.0654C3.25995 14.9095 6.17766 14.5143 7.14532 16.4849L12.2964 26.9744C12.592 27.5763 13.0652 28.0733 13.652 28.3982V28.3982C15.0386 29.1658 16.7741 28.8309 17.772 27.6032L23.4271 20.6461C26.5761 16.7721 32.8048 18.1776 34 23.0318V23.0318L34.2948 24.9914C34.5765 26.8646 35.535 28.5709 36.9888 29.7874L38.9197 31.4031C40.9044 33.0637 43.8256 32.9366 45.652 31.1103L45.8821 30.8802C45.985 30.7773 46.0988 30.6859 46.2216 30.6076V30.6076C47.0273 30.094 48.0846 30.2207 48.7484 30.9104L49.919 32.1266C50.0521 32.265 50.1707 32.4166 50.273 32.5791V32.5791C51.4545 34.4557 54.2397 34.293 55.1874 32.2921L59.7678 22.6206C60.0309 22.065 60.4199 21.5785 60.904 21.1997V21.1997C62.5282 19.9285 64.8586 20.1189 66.2602 21.6373L67.5474 23.0318L68.8316 24.3159C69.0213 24.5056 69.2368 24.6675 69.4719 24.7968V24.7968C70.9567 25.6134 72.8192 24.9567 73.4598 23.3906L74.8798 19.9196C75.0157 19.5875 75.1223 19.2442 75.1986 18.8935L79.0001 1.41064" stroke="#10B860" stroke-width="2" stroke-linecap="round"/>
</svg>
