<svg width="93" height="32" viewBox="0 0 93 32" fill="none" xmlns="http://www.w3.org/2000/svg">
<path d="M91.4813 21.8802L89.9851 21.0573C88.3693 20.1686 86.8872 19.0555 85.583 17.7514V17.7514L84.1617 16.2116C82.299 14.1937 79.2019 13.9406 77.0433 15.6299V15.6299C76.5793 15.9931 76.1797 16.4317 75.8613 16.9275L68.3947 28.5507C67.4972 29.9477 65.6772 30.4213 64.209 29.6399V29.6399C63.9111 29.4813 63.6401 29.2766 63.4061 29.0334L62.0429 27.617C61.2116 26.7533 59.8877 26.5947 58.8787 27.2379V27.2379C58.725 27.3359 58.5825 27.4503 58.4536 27.5791L58.1655 27.8673C55.8785 30.1543 52.2205 30.3134 49.7354 28.2339L46.9144 25.8735C45.379 24.5889 44.4916 22.6903 44.4916 20.6902L44.4916 3.95014C44.4916 1.49696 41.2303 0.640393 40.0324 2.77895V2.77895C39.9659 2.89777 39.8892 3.01064 39.8033 3.11632L23.2541 23.4757C22.0045 25.013 19.8314 25.4324 18.095 24.4712V24.4712C17.3603 24.0644 16.7677 23.4421 16.3976 22.6883L9.94733 9.55328C8.73562 7.0858 5.08206 7.58061 4.57981 10.2802V10.2802L3.30184 15.4924L1.11407 26.1318" stroke="#FB4949" stroke-width="2" stroke-linecap="round"/>
</svg>
