   <svg
              width="40"
              height="40"
              viewBox="0 0 40 40"
              fill="none"
              xmlns="http://www.w3.org/2000/svg"
            >
              <mask
                id="mask0_519_56306"
            style="mask-type:luminance"
                maskUnits="userSpaceOnUse"
                x="4"
                y="4"
                width="32"
                height="32"
              >
                <path d="M36 4H4V36H36V4Z" fill="white" />
              </mask>
              <g mask="url(#mask0_519_56306)">
                <path
                  d="M7.13235 18.0325C7.00238 17.5476 7.00236 17.037 7.1323 16.5521C7.26223 16.0672 7.51753 15.625 7.87254 15.27L15.2701 7.87246C15.6251 7.51745 16.0673 7.26215 16.5522 7.13222C17.0371 7.00229 17.5477 7.00231 18.0326 7.13227L24.9549 8.98709C25.0269 8.03876 25.3571 7.12821 25.9096 6.35407L17.5722 4.12031C16.9738 3.95998 16.3437 3.95998 15.7453 4.12032C15.1469 4.28066 14.6012 4.59569 14.1631 5.03374L5.03398 14.1629C4.59593 14.601 4.2809 15.1466 4.12056 15.7451C3.96022 16.3435 3.96022 16.9736 4.12055 17.572L6.44024 26.2291C7.19856 25.65 8.10138 25.2903 9.05017 25.1895L7.13235 18.0325Z"
                  fill="#18CDCA"
                />
                <path
                  d="M30.8864 14.5713L32.8683 21.9675C32.9983 22.4525 32.9982 22.963 32.8683 23.4478C32.7383 23.9329 32.483 24.375 32.128 24.73L24.7304 32.1277C24.3754 32.4827 23.9333 32.7379 23.4483 32.8679C22.9634 32.9977 22.4527 32.9977 21.9679 32.8679L14.8109 30.9501C14.7101 31.8989 14.3505 32.8018 13.7713 33.56L22.4284 35.8797C23.0268 36.0401 23.6569 36.0401 24.2553 35.8797C24.8538 35.7193 25.3994 35.4044 25.8376 34.9663L34.9667 25.8371C35.4048 25.399 35.7197 24.8534 35.8801 24.2549C36.0405 23.6565 36.0405 23.0264 35.8801 22.428L33.4729 13.4468C32.7307 14.0526 31.8356 14.4418 30.8864 14.5713Z"
                  fill="#18CDCA"
                />
                <path
                  d="M6.64819 27.423C6.06188 28.0093 5.66261 28.7564 5.50085 29.5695C5.33908 30.3828 5.4221 31.2257 5.73941 31.9918C6.05669 32.7576 6.59403 33.4124 7.28342 33.8731C7.97284 34.3337 8.78335 34.5797 9.6125 34.5797C10.4416 34.5797 11.2522 34.3337 11.9416 33.8731C12.631 33.4124 13.1683 32.7576 13.4856 31.9918C13.8029 31.2257 13.8859 30.3828 13.7241 29.5695C13.5624 28.7564 13.1631 28.0093 12.5768 27.423C11.79 26.6381 10.7239 26.1971 9.6125 26.1971C8.50106 26.1971 7.43498 26.6381 6.64819 27.423Z"
                  fill="#4F80E1"
                />
                <path
                  d="M27.2063 6.43208C26.6201 7.01837 26.2207 7.76534 26.059 8.57856C25.8973 9.39176 25.9802 10.2347 26.2976 11.0007C26.6149 11.7667 27.1521 12.4215 27.8415 12.8821C28.531 13.3428 29.3415 13.5887 30.1705 13.5887C30.9998 13.5887 31.8103 13.3428 32.4998 12.8821C33.1891 12.4215 33.7264 11.7667 34.0437 11.0007C34.361 10.2347 34.444 9.39176 34.2822 8.57856C34.1206 7.76534 33.7211 7.01837 33.1349 6.43208C32.3482 5.64705 31.282 5.20618 30.1705 5.20618C29.0592 5.20618 27.993 5.64705 27.2063 6.43208Z"
                  fill="#4F80E1"
                />
                <path
                  d="M22.4609 31.1126C22.2925 31.1126 22.125 31.0906 21.9624 31.047L15.4111 29.2915C15.1926 28.125 14.6267 27.0517 13.7875 26.2125C12.9483 25.3734 11.875 24.8073 10.7085 24.5889L8.95314 18.0381C8.86612 17.7114 8.86637 17.3675 8.95389 17.0409C9.04141 16.7143 9.21313 16.4164 9.45187 16.1769L16.1761 9.45254C16.4153 9.21334 16.7132 9.04132 17.0399 8.95377C17.3667 8.86622 17.7107 8.86624 18.0375 8.95382L24.4051 10.66C24.6577 11.8193 25.2545 12.8753 26.1174 13.6897C26.9803 14.504 28.0691 15.0388 29.241 15.2239L31.0463 21.963C31.1333 22.2899 31.1331 22.6338 31.0455 22.9603C30.958 23.287 30.7863 23.5849 30.5474 23.8244L23.8232 30.5486C23.6448 30.728 23.4323 30.8703 23.1985 30.967C22.9647 31.0639 22.714 31.1133 22.4609 31.1126Z"
                  fill="#4F80E1"
                />
              </g>
              <path
                d="M26.5204 18.088C26.2554 18.088 26.041 18.2934 26.041 18.5473V22.1874C26.041 22.5386 25.8436 22.8385 25.5136 22.9898C25.1836 23.1411 24.8142 23.1033 24.5294 22.8817L20.7671 19.9991L24.3658 17.1245C24.4928 17.0408 24.5773 16.903 24.5773 16.7435C24.5773 16.4896 24.3629 16.2843 24.0978 16.2843C23.9991 16.2843 23.9061 16.3139 23.8299 16.3626C23.8187 16.368 23.8102 16.3761 23.7988 16.3843L19.9999 19.4101L16.0685 16.4005C15.496 15.9601 14.7316 15.8764 14.0718 16.1816C13.409 16.4842 13 17.111 13 17.8134V22.1873C13 22.8897 13.4089 23.5138 14.0718 23.819C14.7317 24.1216 15.4988 24.0379 16.0685 23.6002L19.9999 20.5878L23.9286 23.6002C24.2727 23.865 24.6872 24 25.1074 24C25.3839 24 25.6658 23.9406 25.9282 23.819C26.591 23.5138 26.9999 22.8897 26.9999 22.1873V18.5473C26.9999 18.2934 26.7855 18.088 26.5204 18.088ZM15.4705 22.8817C15.1829 23.1032 14.8162 23.1411 14.4863 22.9898C14.1563 22.8385 13.9589 22.5387 13.9589 22.1874V17.8135C13.9589 17.4623 14.1563 17.1597 14.4863 17.0085C14.6189 16.949 14.757 16.9193 14.8924 16.9193C15.0983 16.9193 15.2986 16.9842 15.4706 17.1166L19.2328 19.9991L15.4705 22.8817ZM27 16.4593C27 16.7129 26.7853 16.9186 26.5206 16.9186C26.2558 16.9186 26.0411 16.7129 26.0411 16.4593C26.0411 16.2057 26.2558 16.0001 26.5206 16.0001C26.7854 16.0001 27 16.2056 27 16.4593Z"
                fill="white"
              />
            </svg>