 <svg
                        width="12"
                        height="14"
                        viewBox="0 0 12 14"
                        fill="none"
                        xmlns="http://www.w3.org/2000/svg"
                        className="cursor-pointer"
                      >
                        <path
                          d="M8.5 6.5C8.5 7.16304 8.23661 7.79893 7.76777 8.26777C7.29893 8.73661 6.66304 9 6 9C5.33696 9 4.70107 8.73661 4.23223 8.26777C3.76339 7.79893 3.5 7.16304 3.5 6.5V3C3.5 2.33696 3.76339 1.70107 4.23223 1.23223C4.70107 0.763392 5.33696 0.5 6 0.5C6.66304 0.5 7.29893 0.763392 7.76777 1.23223C8.23661 1.70107 8.5 2.33696 8.5 3V6.5Z"
                          stroke="#637381"
                          stroke-linecap="round"
                          stroke-linejoin="round"
                        />
                        <path
                          d="M11 7C11.0013 7.59132 10.8858 8.17707 10.6602 8.72363C10.4345 9.27019 10.1031 9.76679 9.68493 10.1849C9.26681 10.603 8.77021 10.9345 8.22364 11.1601C7.67708 11.3858 7.09133 11.5013 6.50001 11.5H5.50001C4.90869 11.5013 4.32294 11.3858 3.77638 11.1601C3.22982 10.9345 2.73322 10.603 2.31509 10.1849C1.89696 9.76679 1.56555 9.27019 1.33987 8.72363C1.11419 8.17707 0.998693 7.59132 1.00001 7M6.00001 11.5V13.5"
                          stroke="#637381"
                          stroke-linecap="round"
                          stroke-linejoin="round"
                        />
                      </svg>